<mxfile host="drawio-plugin" modified="2023-10-25T23:07:26.226Z" agent="5.0 (Macintosh; Intel Mac OS X 10_15_7) AppleWebKit/537.36 (KHTML, like Gecko) Chrome/111.0.0.0 Safari/537.36" etag="aemgDFfCq2DP8hi-14wd" version="20.5.3" type="embed" pages="2"><diagram name="Page-1" id="UD8yu1-71jTabyGn6Ksl"><mxGraphModel dx="610" dy="522" grid="1" gridSize="10" guides="1" tooltips="1" connect="1" arrows="1" fold="1" page="1" pageScale="1" pageWidth="850" pageHeight="1100" math="0" shadow="0"><root><mxCell id="0"/><mxCell id="1" parent="0"/><mxCell id="j6X3iuMTT80umR6ZVCOs-26" value="Ship will have the ability&lt;br&gt;to move up and down to&lt;br&gt;dodge meteors/enemies proyectil" style="text;html=1;align=center;verticalAlign=middle;resizable=0;points=[];autosize=1;strokeColor=none;fillColor=none;" parent="1" vertex="1"><mxGeometry x="290" y="260" width="200" height="60" as="geometry"/></mxCell><mxCell id="j6X3iuMTT80umR6ZVCOs-27" value="Projectile" style="swimlane;fontStyle=1;align=center;verticalAlign=top;childLayout=stackLayout;horizontal=1;startSize=26;horizontalStack=0;resizeParent=1;resizeParentMax=0;resizeLast=0;collapsible=1;marginBottom=0;whiteSpace=wrap;html=1;" parent="1" vertex="1"><mxGeometry x="560" y="498" width="160" height="190" as="geometry"/></mxCell><mxCell id="j6X3iuMTT80umR6ZVCOs-28" value="+ CanMove: boolean" style="text;strokeColor=none;fillColor=none;align=left;verticalAlign=top;spacingLeft=4;spacingRight=4;overflow=hidden;rotatable=0;points=[[0,0.5],[1,0.5]];portConstraint=eastwest;whiteSpace=wrap;html=1;" parent="j6X3iuMTT80umR6ZVCOs-27" vertex="1"><mxGeometry y="26" width="160" height="26" as="geometry"/></mxCell><mxCell id="j6X3iuMTT80umR6ZVCOs-30" value="+ PositionX/Y: int" style="text;strokeColor=none;fillColor=none;align=left;verticalAlign=top;spacingLeft=4;spacingRight=4;overflow=hidden;rotatable=0;points=[[0,0.5],[1,0.5]];portConstraint=eastwest;whiteSpace=wrap;html=1;" parent="j6X3iuMTT80umR6ZVCOs-27" vertex="1"><mxGeometry y="52" width="160" height="26" as="geometry"/></mxCell><mxCell id="j6X3iuMTT80umR6ZVCOs-31" value="+ Detonate" style="text;strokeColor=none;fillColor=none;align=left;verticalAlign=top;spacingLeft=4;spacingRight=4;overflow=hidden;rotatable=0;points=[[0,0.5],[1,0.5]];portConstraint=eastwest;whiteSpace=wrap;html=1;" parent="j6X3iuMTT80umR6ZVCOs-27" vertex="1"><mxGeometry y="78" width="160" height="26" as="geometry"/></mxCell><mxCell id="10" value="+ Mass" style="text;strokeColor=none;fillColor=none;align=left;verticalAlign=top;spacingLeft=4;spacingRight=4;overflow=hidden;rotatable=0;points=[[0,0.5],[1,0.5]];portConstraint=eastwest;whiteSpace=wrap;html=1;" parent="j6X3iuMTT80umR6ZVCOs-27" vertex="1"><mxGeometry y="104" width="160" height="26" as="geometry"/></mxCell><mxCell id="11" value="+ Velocity X/Y" style="text;strokeColor=none;fillColor=none;align=left;verticalAlign=top;spacingLeft=4;spacingRight=4;overflow=hidden;rotatable=0;points=[[0,0.5],[1,0.5]];portConstraint=eastwest;whiteSpace=wrap;html=1;" vertex="1" parent="j6X3iuMTT80umR6ZVCOs-27"><mxGeometry y="130" width="160" height="26" as="geometry"/></mxCell><mxCell id="j6X3iuMTT80umR6ZVCOs-29" value="" style="line;strokeWidth=1;fillColor=none;align=left;verticalAlign=middle;spacingTop=-1;spacingLeft=3;spacingRight=3;rotatable=0;labelPosition=right;points=[];portConstraint=eastwest;strokeColor=inherit;" parent="j6X3iuMTT80umR6ZVCOs-27" vertex="1"><mxGeometry y="156" width="160" height="8" as="geometry"/></mxCell><mxCell id="2" value="+&amp;nbsp;" style="text;strokeColor=none;fillColor=none;align=left;verticalAlign=top;spacingLeft=4;spacingRight=4;overflow=hidden;rotatable=0;points=[[0,0.5],[1,0.5]];portConstraint=eastwest;whiteSpace=wrap;html=1;" parent="j6X3iuMTT80umR6ZVCOs-27" vertex="1"><mxGeometry y="164" width="160" height="26" as="geometry"/></mxCell><mxCell id="j6X3iuMTT80umR6ZVCOs-33" value="Ship" style="swimlane;fontStyle=1;align=center;verticalAlign=top;childLayout=stackLayout;horizontal=1;startSize=26;horizontalStack=0;resizeParent=1;resizeParentMax=0;resizeLast=0;collapsible=1;marginBottom=0;whiteSpace=wrap;html=1;" parent="1" vertex="1"><mxGeometry x="310" y="310" width="160" height="112" as="geometry"/></mxCell><mxCell id="j6X3iuMTT80umR6ZVCOs-34" value="+ CanMove: boolean" style="text;strokeColor=none;fillColor=none;align=left;verticalAlign=top;spacingLeft=4;spacingRight=4;overflow=hidden;rotatable=0;points=[[0,0.5],[1,0.5]];portConstraint=eastwest;whiteSpace=wrap;html=1;" parent="j6X3iuMTT80umR6ZVCOs-33" vertex="1"><mxGeometry y="26" width="160" height="26" as="geometry"/></mxCell><mxCell id="j6X3iuMTT80umR6ZVCOs-35" value="+ PositionY: int" style="text;strokeColor=none;fillColor=none;align=left;verticalAlign=top;spacingLeft=4;spacingRight=4;overflow=hidden;rotatable=0;points=[[0,0.5],[1,0.5]];portConstraint=eastwest;whiteSpace=wrap;html=1;" parent="j6X3iuMTT80umR6ZVCOs-33" vertex="1"><mxGeometry y="52" width="160" height="26" as="geometry"/></mxCell><mxCell id="j6X3iuMTT80umR6ZVCOs-36" value="" style="line;strokeWidth=1;fillColor=none;align=left;verticalAlign=middle;spacingTop=-1;spacingLeft=3;spacingRight=3;rotatable=0;labelPosition=right;points=[];portConstraint=eastwest;strokeColor=inherit;" parent="j6X3iuMTT80umR6ZVCOs-33" vertex="1"><mxGeometry y="78" width="160" height="8" as="geometry"/></mxCell><mxCell id="j6X3iuMTT80umR6ZVCOs-38" value="+ Fire" style="text;strokeColor=none;fillColor=none;align=left;verticalAlign=top;spacingLeft=4;spacingRight=4;overflow=hidden;rotatable=0;points=[[0,0.5],[1,0.5]];portConstraint=eastwest;whiteSpace=wrap;html=1;" parent="j6X3iuMTT80umR6ZVCOs-33" vertex="1"><mxGeometry y="86" width="160" height="26" as="geometry"/></mxCell><mxCell id="j6X3iuMTT80umR6ZVCOs-39" value="Enemies" style="swimlane;fontStyle=1;align=center;verticalAlign=top;childLayout=stackLayout;horizontal=1;startSize=26;horizontalStack=0;resizeParent=1;resizeParentMax=0;resizeLast=0;collapsible=1;marginBottom=0;whiteSpace=wrap;html=1;" parent="1" vertex="1"><mxGeometry x="540" y="310" width="200" height="112" as="geometry"/></mxCell><mxCell id="j6X3iuMTT80umR6ZVCOs-41" value="+ RandomPosition X/Y: Random" style="text;strokeColor=none;fillColor=none;align=left;verticalAlign=top;spacingLeft=4;spacingRight=4;overflow=hidden;rotatable=0;points=[[0,0.5],[1,0.5]];portConstraint=eastwest;whiteSpace=wrap;html=1;" parent="j6X3iuMTT80umR6ZVCOs-39" vertex="1"><mxGeometry y="26" width="200" height="26" as="geometry"/></mxCell><mxCell id="6" value="+ Move ?" style="text;strokeColor=none;fillColor=none;align=left;verticalAlign=top;spacingLeft=4;spacingRight=4;overflow=hidden;rotatable=0;points=[[0,0.5],[1,0.5]];portConstraint=eastwest;whiteSpace=wrap;html=1;" parent="j6X3iuMTT80umR6ZVCOs-39" vertex="1"><mxGeometry y="52" width="200" height="26" as="geometry"/></mxCell><mxCell id="j6X3iuMTT80umR6ZVCOs-42" value="" style="line;strokeWidth=1;fillColor=none;align=left;verticalAlign=middle;spacingTop=-1;spacingLeft=3;spacingRight=3;rotatable=0;labelPosition=right;points=[];portConstraint=eastwest;strokeColor=inherit;" parent="j6X3iuMTT80umR6ZVCOs-39" vertex="1"><mxGeometry y="78" width="200" height="8" as="geometry"/></mxCell><mxCell id="j6X3iuMTT80umR6ZVCOs-44" value="+&amp;nbsp;" style="text;strokeColor=none;fillColor=none;align=left;verticalAlign=top;spacingLeft=4;spacingRight=4;overflow=hidden;rotatable=0;points=[[0,0.5],[1,0.5]];portConstraint=eastwest;whiteSpace=wrap;html=1;" parent="j6X3iuMTT80umR6ZVCOs-39" vertex="1"><mxGeometry y="86" width="200" height="26" as="geometry"/></mxCell><mxCell id="j6X3iuMTT80umR6ZVCOs-46" value="Meteors" style="swimlane;fontStyle=1;align=center;verticalAlign=top;childLayout=stackLayout;horizontal=1;startSize=26;horizontalStack=0;resizeParent=1;resizeParentMax=0;resizeLast=0;collapsible=1;marginBottom=0;whiteSpace=wrap;html=1;" parent="1" vertex="1"><mxGeometry x="280" y="550" width="200" height="164" as="geometry"/></mxCell><mxCell id="j6X3iuMTT80umR6ZVCOs-47" value="+ RandomPosition X/Y: Random" style="text;strokeColor=none;fillColor=none;align=left;verticalAlign=top;spacingLeft=4;spacingRight=4;overflow=hidden;rotatable=0;points=[[0,0.5],[1,0.5]];portConstraint=eastwest;whiteSpace=wrap;html=1;" parent="j6X3iuMTT80umR6ZVCOs-46" vertex="1"><mxGeometry y="26" width="200" height="26" as="geometry"/></mxCell><mxCell id="3" value="+ Detonate&lt;span style=&quot;white-space: pre;&quot;&gt;&#9;&lt;/span&gt;" style="text;strokeColor=none;fillColor=none;align=left;verticalAlign=top;spacingLeft=4;spacingRight=4;overflow=hidden;rotatable=0;points=[[0,0.5],[1,0.5]];portConstraint=eastwest;whiteSpace=wrap;html=1;" parent="j6X3iuMTT80umR6ZVCOs-46" vertex="1"><mxGeometry y="52" width="200" height="26" as="geometry"/></mxCell><mxCell id="4" value="+ Change gravity" style="text;strokeColor=none;fillColor=none;align=left;verticalAlign=top;spacingLeft=4;spacingRight=4;overflow=hidden;rotatable=0;points=[[0,0.5],[1,0.5]];portConstraint=eastwest;whiteSpace=wrap;html=1;" parent="j6X3iuMTT80umR6ZVCOs-46" vertex="1"><mxGeometry y="78" width="200" height="26" as="geometry"/></mxCell><mxCell id="12" value="+ Velocity X/Y" style="text;strokeColor=none;fillColor=none;align=left;verticalAlign=top;spacingLeft=4;spacingRight=4;overflow=hidden;rotatable=0;points=[[0,0.5],[1,0.5]];portConstraint=eastwest;whiteSpace=wrap;html=1;" vertex="1" parent="j6X3iuMTT80umR6ZVCOs-46"><mxGeometry y="104" width="200" height="26" as="geometry"/></mxCell><mxCell id="j6X3iuMTT80umR6ZVCOs-48" value="" style="line;strokeWidth=1;fillColor=none;align=left;verticalAlign=middle;spacingTop=-1;spacingLeft=3;spacingRight=3;rotatable=0;labelPosition=right;points=[];portConstraint=eastwest;strokeColor=inherit;" parent="j6X3iuMTT80umR6ZVCOs-46" vertex="1"><mxGeometry y="130" width="200" height="8" as="geometry"/></mxCell><mxCell id="j6X3iuMTT80umR6ZVCOs-49" value="+" style="text;strokeColor=none;fillColor=none;align=left;verticalAlign=top;spacingLeft=4;spacingRight=4;overflow=hidden;rotatable=0;points=[[0,0.5],[1,0.5]];portConstraint=eastwest;whiteSpace=wrap;html=1;" parent="j6X3iuMTT80umR6ZVCOs-46" vertex="1"><mxGeometry y="138" width="200" height="26" as="geometry"/></mxCell><mxCell id="j6X3iuMTT80umR6ZVCOs-50" value="" style="endArrow=diamondThin;endFill=1;endSize=24;html=1;rounded=0;entryX=0.703;entryY=-0.031;entryDx=0;entryDy=0;entryPerimeter=0;exitX=0.429;exitY=1.128;exitDx=0;exitDy=0;exitPerimeter=0;" parent="1" source="j6X3iuMTT80umR6ZVCOs-38" edge="1"><mxGeometry width="160" relative="1" as="geometry"><mxPoint x="380" y="450" as="sourcePoint"/><mxPoint x="379.9300000000001" y="550.004" as="targetPoint"/></mxGeometry></mxCell><mxCell id="j6X3iuMTT80umR6ZVCOs-51" value="If meteors and ship have same position&amp;nbsp;&lt;br&gt;either the game is lost or ship lose life." style="edgeLabel;html=1;align=center;verticalAlign=middle;resizable=0;points=[];" parent="j6X3iuMTT80umR6ZVCOs-50" vertex="1" connectable="0"><mxGeometry x="-0.36" y="-1" relative="1" as="geometry"><mxPoint as="offset"/></mxGeometry></mxCell><mxCell id="j6X3iuMTT80umR6ZVCOs-52" value="" style="endArrow=diamondThin;endFill=1;endSize=24;html=1;rounded=0;exitX=0.492;exitY=1.179;exitDx=0;exitDy=0;exitPerimeter=0;" parent="1" source="j6X3iuMTT80umR6ZVCOs-44" edge="1"><mxGeometry width="160" relative="1" as="geometry"><mxPoint x="639.33" y="438" as="sourcePoint"/><mxPoint x="639.33" y="498" as="targetPoint"/></mxGeometry></mxCell><mxCell id="j6X3iuMTT80umR6ZVCOs-53" value="Same behavior as Meteors/Ship" style="edgeLabel;html=1;align=center;verticalAlign=middle;resizable=0;points=[];" parent="j6X3iuMTT80umR6ZVCOs-52" vertex="1" connectable="0"><mxGeometry x="0.0411" y="-1" relative="1" as="geometry"><mxPoint as="offset"/></mxGeometry></mxCell><mxCell id="j6X3iuMTT80umR6ZVCOs-54" value="Game Field" style="swimlane;fontStyle=1;align=center;verticalAlign=top;childLayout=stackLayout;horizontal=1;startSize=26;horizontalStack=0;resizeParent=1;resizeParentMax=0;resizeLast=0;collapsible=1;marginBottom=0;whiteSpace=wrap;html=1;" parent="1" vertex="1"><mxGeometry x="20" y="336" width="160" height="112" as="geometry"/></mxCell><mxCell id="9" value="+ Obstacles" style="text;strokeColor=none;fillColor=none;align=left;verticalAlign=top;spacingLeft=4;spacingRight=4;overflow=hidden;rotatable=0;points=[[0,0.5],[1,0.5]];portConstraint=eastwest;whiteSpace=wrap;html=1;" parent="j6X3iuMTT80umR6ZVCOs-54" vertex="1"><mxGeometry y="26" width="160" height="26" as="geometry"/></mxCell><mxCell id="8" value="+ Count objects destroyed" style="text;strokeColor=none;fillColor=none;align=left;verticalAlign=top;spacingLeft=4;spacingRight=4;overflow=hidden;rotatable=0;points=[[0,0.5],[1,0.5]];portConstraint=eastwest;whiteSpace=wrap;html=1;" parent="j6X3iuMTT80umR6ZVCOs-54" vertex="1"><mxGeometry y="52" width="160" height="26" as="geometry"/></mxCell><mxCell id="j6X3iuMTT80umR6ZVCOs-57" value="" style="line;strokeWidth=1;fillColor=none;align=left;verticalAlign=middle;spacingTop=-1;spacingLeft=3;spacingRight=3;rotatable=0;labelPosition=right;points=[];portConstraint=eastwest;strokeColor=inherit;" parent="j6X3iuMTT80umR6ZVCOs-54" vertex="1"><mxGeometry y="78" width="160" height="8" as="geometry"/></mxCell><mxCell id="j6X3iuMTT80umR6ZVCOs-59" value="+&amp;nbsp;" style="text;strokeColor=none;fillColor=none;align=left;verticalAlign=top;spacingLeft=4;spacingRight=4;overflow=hidden;rotatable=0;points=[[0,0.5],[1,0.5]];portConstraint=eastwest;whiteSpace=wrap;html=1;" parent="j6X3iuMTT80umR6ZVCOs-54" vertex="1"><mxGeometry y="86" width="160" height="26" as="geometry"/></mxCell><mxCell id="j6X3iuMTT80umR6ZVCOs-60" value="" style="endArrow=diamondThin;endFill=1;endSize=24;html=1;rounded=0;entryX=1.008;entryY=-0.128;entryDx=0;entryDy=0;entryPerimeter=0;exitX=-0.004;exitY=-0.231;exitDx=0;exitDy=0;exitPerimeter=0;" parent="1" target="j6X3iuMTT80umR6ZVCOs-59" edge="1"><mxGeometry width="160" relative="1" as="geometry"><mxPoint x="309.3599999999999" y="391.9939999999999" as="sourcePoint"/><mxPoint x="202.07999999999993" y="392" as="targetPoint"/></mxGeometry></mxCell><mxCell id="j6X3iuMTT80umR6ZVCOs-61" value="" style="endArrow=none;html=1;edgeStyle=orthogonalEdgeStyle;rounded=0;exitX=0;exitY=0.5;exitDx=0;exitDy=0;" parent="1" source="j6X3iuMTT80umR6ZVCOs-47" edge="1"><mxGeometry relative="1" as="geometry"><mxPoint x="110" y="520" as="sourcePoint"/><mxPoint x="250" y="370" as="targetPoint"/></mxGeometry></mxCell><mxCell id="j6X3iuMTT80umR6ZVCOs-66" value="Display &lt;br&gt;all elements" style="edgeLabel;html=1;align=center;verticalAlign=middle;resizable=0;points=[];" parent="j6X3iuMTT80umR6ZVCOs-61" vertex="1" connectable="0"><mxGeometry x="0.8069" y="-1" relative="1" as="geometry"><mxPoint y="-1" as="offset"/></mxGeometry></mxCell><mxCell id="j6X3iuMTT80umR6ZVCOs-64" value="" style="endArrow=none;html=1;edgeStyle=orthogonalEdgeStyle;rounded=0;exitX=0.5;exitY=0;exitDx=0;exitDy=0;" parent="1" source="j6X3iuMTT80umR6ZVCOs-39" edge="1"><mxGeometry relative="1" as="geometry"><mxPoint x="640" y="250" as="sourcePoint"/><mxPoint x="250" y="370" as="targetPoint"/><Array as="points"><mxPoint x="640" y="250"/><mxPoint x="250" y="250"/></Array></mxGeometry></mxCell><mxCell id="j6X3iuMTT80umR6ZVCOs-65" value="" style="endArrow=none;html=1;edgeStyle=orthogonalEdgeStyle;rounded=0;exitX=1;exitY=0.5;exitDx=0;exitDy=0;" parent="1" source="j6X3iuMTT80umR6ZVCOs-30" edge="1"><mxGeometry relative="1" as="geometry"><mxPoint x="760" y="560" as="sourcePoint"/><mxPoint x="640" y="310" as="targetPoint"/><Array as="points"><mxPoint x="760" y="563"/><mxPoint x="760" y="250"/><mxPoint x="640" y="250"/></Array></mxGeometry></mxCell><mxCell id="j6X3iuMTT80umR6ZVCOs-67" value="Meteors will fly from right to left&amp;nbsp;&lt;br&gt;from a Random direction with&amp;nbsp;&lt;br&gt;the purpose of hitting the ship" style="text;html=1;align=center;verticalAlign=middle;resizable=0;points=[];autosize=1;strokeColor=none;fillColor=none;" parent="1" vertex="1"><mxGeometry x="100" y="590" width="190" height="60" as="geometry"/></mxCell><mxCell id="j6X3iuMTT80umR6ZVCOs-68" value="User will be able to&amp;nbsp;&lt;br&gt;launch proyectil with different force&amp;nbsp;" style="text;html=1;align=center;verticalAlign=middle;resizable=0;points=[];autosize=1;strokeColor=none;fillColor=none;" parent="1" vertex="1"><mxGeometry x="550" y="687" width="210" height="40" as="geometry"/></mxCell><mxCell id="j6X3iuMTT80umR6ZVCOs-69" value="Enemies will be static in place&lt;br&gt;they may have their on proyectil" style="text;html=1;align=center;verticalAlign=middle;resizable=0;points=[];autosize=1;strokeColor=none;fillColor=none;" parent="1" vertex="1"><mxGeometry x="640" y="270" width="190" height="40" as="geometry"/></mxCell></root></mxGraphModel></diagram><diagram id="a7q9Z7hmNz9yghinb3Ze" name="Page-2">&#xa;    <mxGraphModel dx="1468" dy="840" grid="1" gridSize="10" guides="1" tooltips="1" connect="1" arrows="1" fold="1" page="1" pageScale="1" pageWidth="850" pageHeight="1100" math="0" shadow="0">&#xa;      <root>&#xa;        <mxCell id="0"/>&#xa;        <mxCell id="1" parent="0"/>&#xa;        <mxCell id="oN1OPOBK_QMBGYMvj-gR-1" value="Die" style="swimlane;fontStyle=1;align=center;verticalAlign=top;childLayout=stackLayout;horizontal=1;startSize=26;horizontalStack=0;resizeParent=1;resizeParentMax=0;resizeLast=0;collapsible=1;marginBottom=0;whiteSpace=wrap;html=1;" vertex="1" parent="1">&#xa;          <mxGeometry x="80" y="80" width="160" height="190" as="geometry"/>&#xa;        </mxCell>&#xa;        <mxCell id="oN1OPOBK_QMBGYMvj-gR-2" value="+ Value : in&lt;span style=&quot;white-space: pre;&quot;&gt;&#9;&lt;/span&gt;" style="text;strokeColor=none;fillColor=none;align=left;verticalAlign=top;spacingLeft=4;spacingRight=4;overflow=hidden;rotatable=0;points=[[0,0.5],[1,0.5]];portConstraint=eastwest;whiteSpace=wrap;html=1;" vertex="1" parent="oN1OPOBK_QMBGYMvj-gR-1">&#xa;          <mxGeometry y="26" width="160" height="26" as="geometry"/>&#xa;        </mxCell>&#xa;        <mxCell id="oN1OPOBK_QMBGYMvj-gR-3" value="+ roll : Random" style="text;strokeColor=none;fillColor=none;align=left;verticalAlign=top;spacingLeft=4;spacingRight=4;overflow=hidden;rotatable=0;points=[[0,0.5],[1,0.5]];portConstraint=eastwest;whiteSpace=wrap;html=1;" vertex="1" parent="oN1OPOBK_QMBGYMvj-gR-1">&#xa;          <mxGeometry y="52" width="160" height="26" as="geometry"/>&#xa;        </mxCell>&#xa;        <mxCell id="oN1OPOBK_QMBGYMvj-gR-4" value="+ field: type" style="text;strokeColor=none;fillColor=none;align=left;verticalAlign=top;spacingLeft=4;spacingRight=4;overflow=hidden;rotatable=0;points=[[0,0.5],[1,0.5]];portConstraint=eastwest;whiteSpace=wrap;html=1;" vertex="1" parent="oN1OPOBK_QMBGYMvj-gR-1">&#xa;          <mxGeometry y="78" width="160" height="26" as="geometry"/>&#xa;        </mxCell>&#xa;        <mxCell id="oN1OPOBK_QMBGYMvj-gR-5" value="+ method(type): type" style="text;strokeColor=none;fillColor=none;align=left;verticalAlign=top;spacingLeft=4;spacingRight=4;overflow=hidden;rotatable=0;points=[[0,0.5],[1,0.5]];portConstraint=eastwest;whiteSpace=wrap;html=1;" vertex="1" parent="oN1OPOBK_QMBGYMvj-gR-1">&#xa;          <mxGeometry y="104" width="160" height="26" as="geometry"/>&#xa;        </mxCell>&#xa;        <mxCell id="oN1OPOBK_QMBGYMvj-gR-6" value="" style="line;strokeWidth=1;fillColor=none;align=left;verticalAlign=middle;spacingTop=-1;spacingLeft=3;spacingRight=3;rotatable=0;labelPosition=right;points=[];portConstraint=eastwest;strokeColor=inherit;" vertex="1" parent="oN1OPOBK_QMBGYMvj-gR-1">&#xa;          <mxGeometry y="130" width="160" height="8" as="geometry"/>&#xa;        </mxCell>&#xa;        <mxCell id="oN1OPOBK_QMBGYMvj-gR-7" value="+ method(type): type" style="text;strokeColor=none;fillColor=none;align=left;verticalAlign=top;spacingLeft=4;spacingRight=4;overflow=hidden;rotatable=0;points=[[0,0.5],[1,0.5]];portConstraint=eastwest;whiteSpace=wrap;html=1;" vertex="1" parent="oN1OPOBK_QMBGYMvj-gR-1">&#xa;          <mxGeometry y="138" width="160" height="26" as="geometry"/>&#xa;        </mxCell>&#xa;        <mxCell id="oN1OPOBK_QMBGYMvj-gR-8" value="+ method(type): type" style="text;strokeColor=none;fillColor=none;align=left;verticalAlign=top;spacingLeft=4;spacingRight=4;overflow=hidden;rotatable=0;points=[[0,0.5],[1,0.5]];portConstraint=eastwest;whiteSpace=wrap;html=1;" vertex="1" parent="oN1OPOBK_QMBGYMvj-gR-1">&#xa;          <mxGeometry y="164" width="160" height="26" as="geometry"/>&#xa;        </mxCell>&#xa;        <mxCell id="oN1OPOBK_QMBGYMvj-gR-9" value="Round" style="swimlane;fontStyle=1;align=center;verticalAlign=top;childLayout=stackLayout;horizontal=1;startSize=26;horizontalStack=0;resizeParent=1;resizeParentMax=0;resizeLast=0;collapsible=1;marginBottom=0;whiteSpace=wrap;html=1;" vertex="1" parent="1">&#xa;          <mxGeometry x="580" y="80" width="250" height="112" as="geometry"/>&#xa;        </mxCell>&#xa;        <mxCell id="oN1OPOBK_QMBGYMvj-gR-10" value="+ rolls: List&amp;lt;Roll&amp;gt;" style="text;strokeColor=none;fillColor=none;align=left;verticalAlign=top;spacingLeft=4;spacingRight=4;overflow=hidden;rotatable=0;points=[[0,0.5],[1,0.5]];portConstraint=eastwest;whiteSpace=wrap;html=1;" vertex="1" parent="oN1OPOBK_QMBGYMvj-gR-9">&#xa;          <mxGeometry y="26" width="250" height="26" as="geometry"/>&#xa;        </mxCell>&#xa;        <mxCell id="oN1OPOBK_QMBGYMvj-gR-11" value="+ state: Enum(COME_OUT, POINT, WIN)" style="text;strokeColor=none;fillColor=none;align=left;verticalAlign=top;spacingLeft=4;spacingRight=4;overflow=hidden;rotatable=0;points=[[0,0.5],[1,0.5]];portConstraint=eastwest;whiteSpace=wrap;html=1;" vertex="1" parent="oN1OPOBK_QMBGYMvj-gR-9">&#xa;          <mxGeometry y="52" width="250" height="26" as="geometry"/>&#xa;        </mxCell>&#xa;        <mxCell id="oN1OPOBK_QMBGYMvj-gR-12" value="" style="line;strokeWidth=1;fillColor=none;align=left;verticalAlign=middle;spacingTop=-1;spacingLeft=3;spacingRight=3;rotatable=0;labelPosition=right;points=[];portConstraint=eastwest;strokeColor=inherit;" vertex="1" parent="oN1OPOBK_QMBGYMvj-gR-9">&#xa;          <mxGeometry y="78" width="250" height="8" as="geometry"/>&#xa;        </mxCell>&#xa;        <mxCell id="oN1OPOBK_QMBGYMvj-gR-13" value="+ roll(rng : Random) void" style="text;strokeColor=none;fillColor=none;align=left;verticalAlign=top;spacingLeft=4;spacingRight=4;overflow=hidden;rotatable=0;points=[[0,0.5],[1,0.5]];portConstraint=eastwest;whiteSpace=wrap;html=1;" vertex="1" parent="oN1OPOBK_QMBGYMvj-gR-9">&#xa;          <mxGeometry y="86" width="250" height="26" as="geometry"/>&#xa;        </mxCell>&#xa;        <mxCell id="oN1OPOBK_QMBGYMvj-gR-14" value="Roll" style="swimlane;fontStyle=1;align=center;verticalAlign=top;childLayout=stackLayout;horizontal=1;startSize=26;horizontalStack=0;resizeParent=1;resizeParentMax=0;resizeLast=0;collapsible=1;marginBottom=0;whiteSpace=wrap;html=1;" vertex="1" parent="1">&#xa;          <mxGeometry x="280" y="370" width="160" height="112" as="geometry"/>&#xa;        </mxCell>&#xa;        <mxCell id="oN1OPOBK_QMBGYMvj-gR-15" value="+ die: die[ 2 ]" style="text;strokeColor=none;fillColor=none;align=left;verticalAlign=top;spacingLeft=4;spacingRight=4;overflow=hidden;rotatable=0;points=[[0,0.5],[1,0.5]];portConstraint=eastwest;whiteSpace=wrap;html=1;" vertex="1" parent="oN1OPOBK_QMBGYMvj-gR-14">&#xa;          <mxGeometry y="26" width="160" height="26" as="geometry"/>&#xa;        </mxCell>&#xa;        <mxCell id="oN1OPOBK_QMBGYMvj-gR-16" value="" style="line;strokeWidth=1;fillColor=none;align=left;verticalAlign=middle;spacingTop=-1;spacingLeft=3;spacingRight=3;rotatable=0;labelPosition=right;points=[];portConstraint=eastwest;strokeColor=inherit;" vertex="1" parent="oN1OPOBK_QMBGYMvj-gR-14">&#xa;          <mxGeometry y="52" width="160" height="8" as="geometry"/>&#xa;        </mxCell>&#xa;        <mxCell id="oN1OPOBK_QMBGYMvj-gR-17" value="+ roll(rng : Random) void" style="text;strokeColor=none;fillColor=none;align=left;verticalAlign=top;spacingLeft=4;spacingRight=4;overflow=hidden;rotatable=0;points=[[0,0.5],[1,0.5]];portConstraint=eastwest;whiteSpace=wrap;html=1;" vertex="1" parent="oN1OPOBK_QMBGYMvj-gR-14">&#xa;          <mxGeometry y="60" width="160" height="26" as="geometry"/>&#xa;        </mxCell>&#xa;        <mxCell id="oN1OPOBK_QMBGYMvj-gR-18" value="+ value() : int" style="text;strokeColor=none;fillColor=none;align=left;verticalAlign=top;spacingLeft=4;spacingRight=4;overflow=hidden;rotatable=0;points=[[0,0.5],[1,0.5]];portConstraint=eastwest;whiteSpace=wrap;html=1;" vertex="1" parent="oN1OPOBK_QMBGYMvj-gR-14">&#xa;          <mxGeometry y="86" width="160" height="26" as="geometry"/>&#xa;        </mxCell>&#xa;        <mxCell id="oN1OPOBK_QMBGYMvj-gR-19" value="" style="endArrow=diamondThin;endFill=1;endSize=24;html=1;rounded=0;exitX=1.006;exitY=1.077;exitDx=0;exitDy=0;exitPerimeter=0;" edge="1" parent="1">&#xa;          <mxGeometry width="160" relative="1" as="geometry">&#xa;            <mxPoint x="441.96000000000004" y="426.00199999999995" as="sourcePoint"/>&#xa;            <mxPoint x="711" y="194" as="targetPoint"/>&#xa;            <Array as="points">&#xa;              <mxPoint x="711" y="426"/>&#xa;            </Array>&#xa;          </mxGeometry>&#xa;        </mxCell>&#xa;        <mxCell id="oN1OPOBK_QMBGYMvj-gR-20" value="Attribute" style="text;html=1;align=center;verticalAlign=middle;resizable=0;points=[];autosize=1;strokeColor=none;fillColor=none;" vertex="1" parent="1">&#xa;          <mxGeometry x="180" y="390" width="70" height="30" as="geometry"/>&#xa;        </mxCell>&#xa;        <mxCell id="oN1OPOBK_QMBGYMvj-gR-21" value="Behavior" style="text;html=1;align=center;verticalAlign=middle;resizable=0;points=[];autosize=1;strokeColor=none;fillColor=none;" vertex="1" parent="1">&#xa;          <mxGeometry x="180" y="450" width="70" height="30" as="geometry"/>&#xa;        </mxCell>&#xa;        <mxCell id="oN1OPOBK_QMBGYMvj-gR-22" value="" style="endArrow=diamondThin;endFill=1;endSize=24;html=1;rounded=0;entryX=0.5;entryY=0;entryDx=0;entryDy=0;" edge="1" parent="1" target="oN1OPOBK_QMBGYMvj-gR-14">&#xa;          <mxGeometry width="160" relative="1" as="geometry">&#xa;            <mxPoint x="240" y="174.5" as="sourcePoint"/>&#xa;            <mxPoint x="400" y="174.5" as="targetPoint"/>&#xa;            <Array as="points">&#xa;              <mxPoint x="360" y="175"/>&#xa;            </Array>&#xa;          </mxGeometry>&#xa;        </mxCell>&#xa;        <mxCell id="oN1OPOBK_QMBGYMvj-gR-23" value="Each row is composed of a pair of &lt;br&gt;dice (with their values)" style="edgeLabel;html=1;align=center;verticalAlign=middle;resizable=0;points=[];" vertex="1" connectable="0" parent="oN1OPOBK_QMBGYMvj-gR-22">&#xa;          <mxGeometry x="0.3841" y="-1" relative="1" as="geometry">&#xa;            <mxPoint as="offset"/>&#xa;          </mxGeometry>&#xa;        </mxCell>&#xa;      </root>&#xa;    </mxGraphModel>&#xa;  </diagram></mxfile>